# xmcd
#
# Track frame offsets: 
#        150
#        18346
#        40996
#        69010
#        87537
#        105676
#        120943
#        138171
#        146605
#        168048
#        189538
#        209650
#        227733
#        251151
#        265112
#        280612
#
# Disc length: 4036 seconds
#
# Revision: 3
# Processed by: cddbd v1.5.2PL0 Copyright (c) Steve Scherf et al.
# Submitted via: ExactAudioCopy v0.95b4
#
DISCID=da0fc210
DTITLE=Rob Tognoni Band - Live at the twilight
DYEAR=1999
DGENRE=
TTITLE0=Everlasting lovin boy
TTITLE1=Dark angel
TTITLE2=Crossword blues
TTITLE3=Jim Beam blues
TTITLE4=Sunburn
TTITLE5=Keep your head above water
TTITLE6=Lil' melody
TTITLE7=Peregian
TTITLE8=Roosevelt and Ira Lee
TTITLE9=I like to dress like Batman
TTITLE10=Don't be too hard on me
TTITLE11=The sinner
TTITLE12=Itty bitty mama
TTITLE13=Bad girl
TTITLE14=Black is white
TTITLE15=My acid is Kickin in
EXTD=
EXTT0=
EXTT1=
EXTT2=
EXTT3=
EXTT4=
EXTT5=
EXTT6=
EXTT7=
EXTT8=
EXTT9=
EXTT10=
EXTT11=
EXTT12=
EXTT13=
EXTT14=
EXTT15=
PLAYORDER=
